<svg width="33" height="33" viewBox="0 0 33 33" fill="none" xmlns="http://www.w3.org/2000/svg">
<path d="M28.2704 14.0099L17.9579 3.69736C17.5712 3.31086 17.0468 3.09375 16.5 3.09375C15.9532 3.09375 15.4288 3.31086 15.0421 3.69736L4.72958 14.0099C4.53713 14.2009 4.38458 14.4283 4.28079 14.6788C4.177 14.9293 4.12405 15.1979 4.12501 15.4691V27.8441C4.12501 28.1176 4.23366 28.3799 4.42706 28.5733C4.62046 28.7667 4.88276 28.8753 5.15626 28.8753H13.4063C13.6798 28.8753 13.9421 28.7667 14.1355 28.5733C14.3289 28.3799 14.4375 28.1176 14.4375 27.8441V20.6253H18.5625V27.8441C18.5625 28.1176 18.6712 28.3799 18.8646 28.5733C19.058 28.7667 19.3203 28.8753 19.5938 28.8753H27.8438C28.1173 28.8753 28.3796 28.7667 28.573 28.5733C28.7664 28.3799 28.875 28.1176 28.875 27.8441V15.4691C28.876 15.1979 28.823 14.9293 28.7192 14.6788C28.6154 14.4283 28.4629 14.2009 28.2704 14.0099ZM26.8125 26.8128H20.625V19.5941C20.625 19.3206 20.5164 19.0583 20.323 18.8649C20.1296 18.6715 19.8673 18.5628 19.5938 18.5628H13.4063C13.1328 18.5628 12.8705 18.6715 12.6771 18.8649C12.4837 19.0583 12.375 19.3206 12.375 19.5941V26.8128H6.18751V15.4691L16.5 5.15658L26.8125 15.4691V26.8128Z" fill="#1E1E1E"/>
</svg>